/* XPM */
static char *result[] = {
/* columns rows colors chars-per-pixel */
"40 40 8 1 ",
"  c black",
". c gray19",
"X c #61372E",
"o c gray33",
"O c #F2AE61",
"+ c gray63",
"@ c #FFDEB8",
"# c None",
/* pixels */
"########################################",
"########################################",
"########.######################.########",
"########..#######......#######..########",
"########..#######......#######..########",
"########..######........######..########",
"########.@.####..........####.@.########",
"########.@.####..........####.@.########",
"#########@@###............###@@#########",
"#########@@###............###@@#########",
"#########..###............###..#########",
"#########..O##............##O..#########",
"#########OOO##..oo....oo..##OOO#########",
"##########OOO##..oooooo..##OOO##########",
"###########OOO##........##OOO###########",
"############O..#O......O#..O############",
"#############...OO....OO...#############",
"# @..@########...OOOOOO...########@..@ #",
"# @.@@.OO#####...OOOOOO...#####OO.@@.@ #",
"#####..OOOOOO...OOXXXXOO...OOOOOO..#####",
"#####..OOOOOO..OOOXXXXOOO..OOOOOO..#####",
"########OOOOO..OOXXXXXXOO..OOOOO########",
"###############OXX.XX.XXO###############",
"#############..OX......XO..#############",
"## @..@####O...OX.+..+.XO...O####@..@ ##",
"## @.@@.OOOO.###OX.++.XO###.OOOO.@@.@ ##",
"######..OOOO##..OOX..XOO..##OOOO..######",
"##############..##OOOO##..##############",
"#############...##O##O##...#############",
"###########OOO.##O.##.O#..OOO###########",
"#########..OOO###.####.###OOO..#########",
"########...O################O...########",
"#### @..@.OO################OO.@..@ ####",
"###  @.@@######################@@.@  ###",
"########################################",
"########################################",
"########################################",
"########################################",
"########################################",
"########################################"
};
