/* XPM */
static char *result[] = {
/* columns rows colors chars-per-pixel */
"40 40 8 1 ",
"  c black",
". c gray19",
"X c #61372E",
"o c gray33",
"O c #F2AE61",
"+ c gray63",
"@ c #FFDEB8",
"# c None",
/* pixels */
"########################################",
"########################################",
"########################################",
"#################......#################",
"#################......#################",
"################........################",
"###.###########..........###########.###",
"###...#########..........#########...###",
"####..########............########..####",
"####..@.######............######.@..####",
"#####.@.######............######.@.#####",
"#######@@#####............#####@@#######",
"#######@@.OO##..oo....oo..##OO.@@#######",
"### @###..OOO##..oooooo..##OOO..###@ ###",
"## @@.##.OOOOO##........##OOOOO.##.@@ ##",
"#### .@@####O..#O......O#..O####@@. ####",
"######@..####...OO....OO...####..@######",
"######..OOO###...OOOOOO...###OOO..######",
"######..OOO###...OOOOOO...###OOO..######",
"########OOOOO...OOXXXXOO...OOOOO########",
"########OOOOO..OOOXXXXOOO..OOOOO########",
"##########OOO..OOXXXXXXOO..OOO##########",
"###############OXX.XX.XXO###############",
"#############..OX......XO..#############",
"###########O...OX.+..+.XO...O###########",
"########OOOO.###OX.++.XO###.OOOO########",
"#######..OOO##..OOX..XOO..##OOO..#######",
"### @.@@.#####..##OOOO##..#####.@@.@ ###",
"### @..@#####...##O##O##...#####@..@ ###",
"###########OOO.##O.##.O#..OOO###########",
"##########OOOO###.####.###OOOO##########",
"#########..O################O..#########",
"#########..O################O..#########",
"########@..O################O..@########",
"########@@.##################.@@########",
"#######..@####################@..#######",
"######.@.######################.@.######",
"######..########################..######",
"########################################",
"########################################"
};
