/* XPM */
static char *result[] = {
/* columns rows colors chars-per-pixel */
"40 40 8 1 ",
"  c black",
". c gray19",
"X c #61372E",
"o c gray33",
"O c #F2AE61",
"+ c gray63",
"@ c #FFDEB8",
"# c None",
/* pixels */
"########################################",
"########################################",
"############## #########  ##############",
"############# @#########@@##############",
"#############@@ ########..##############",
"##############..########.@##############",
"###############@@..#####@@.#########..##",
"###############@...######..########.@.##",
"##......########.OOOO####OO#######@..###",
"###...@@@@..O####OOOO####OO####...@@####",
"######..@@..OO###OOOOO###OO###O....#####",
"###########OOOO####OOO##OOO##OOOOO######",
"#############OOO###OOO##..###OO#########",
"##############O..##...#..###.OO#########",
"########.....##.......#..#....##########",
"######........##....OOOOO#....##########",
"#####.......o..OO..OOOXXXOO#############",
"###.........oo..OOOOOXX..XO##O.#########",
"###..........o...OOXXX..+.XOO.##########",
"###..........o...OOXXXX..+.O############",
"###..........o...OOXXXX..+.O############",
"###..........o...OOXXX..+.XOO.##########",
"###.........oo..OOOOOXX..XO##O.#########",
"#####.......o..OO..OOOXXXOO#############",
"######........##....OOOOO#...###########",
"########.....##.......#..#....##########",
"##############O..##...#..###.OO#########",
"#############OOO###OOO##..###OO#########",
"###########OOOO####OOO##OOO##OOOOO######",
"######..@@..OO###OOOOO###OO###O....#####",
"###...@@@@..O####OOOO####OO####...@@####",
"##......########.OOOO####OO#######@..###",
"###############@...######..########.@.##",
"###############@@..#####@@.#########..##",
"##############..########.@##############",
"#############@@ ########..##############",
"############# @#########@@##############",
"############## #########  ##############",
"########################################",
"########################################"
};
