/* XPM */
static char *result[] = {
/* columns rows colors chars-per-pixel */
"40 40 8 1 ",
"  c black",
". c gray19",
"X c #61372E",
"o c gray33",
"O c #F2AE61",
"+ c gray63",
"@ c #FFDEB8",
"# c None",
/* pixels */
"########################################",
"#################  #####################",
"#################@@#####  ##############",
"#################..#####@@####### ######",
"#################.@#####..######  ######",
"#################@@..###.@######@@######",
"##################...###@@.#####..######",
"##################OOO####..#####.@######",
"##......##########OOOO###OO####.@@######",
"###...@@@@..O######OOO###OO###...#######",
"######..@@..OO#####OOO###OO###..O#######",
"###########OOOO####OOO##OOO##OOOO#######",
"#############OOO###OOO##..###OO#########",
"##############O..##...#..###.OO#########",
"########.....##.......#..#....##########",
"######........##....OOOOO#....##########",
"#####.......o..OO..OOOXXXOO#############",
"###.........oo..OOOOOXX..XO##O.#########",
"###..........o...OOXXX..+.XOO.##########",
"###..........o...OOXXXX..+.O############",
"###..........o...OOXXXX..+.O############",
"###..........o...OOXXX..+.XOO.##########",
"###.........oo..OOOOOXX..XO##O.#########",
"#####.......o..OO..OOOXXXOO#############",
"######........##....OOOOO#...###########",
"########.....##.......#..#....##########",
"##############O..##...#..###.OO#########",
"#############OOO###OOO##..###OO#########",
"###########OOOO####OOO##OOO##OOOO#######",
"######..@@..OO#####OOO###OO###..O#######",
"###...@@@@..O######OOO###OO###...#######",
"##......##########OOOO###OO####.@@######",
"##################OOO####..#####.@######",
"##################...###@@.#####..######",
"#################@@..###.@######@@######",
"#################.@#####..######  ######",
"#################..#####@@####### ######",
"#################@@#####  ##############",
"#################  #####################",
"########################################"
};
