/* XPM */
static char *_42a3534fa904449bb35871334562db4em3SYlJnU1BPDZTF[] = {
/* columns rows colors chars-per-pixel */
"40 40 13 1 ",
"  c None",
". c black",
"X c gray19",
"o c #733F19",
"O c #004173",
"+ c #2F5878",
"@ c gray30",
"# c #656565",
"$ c #6F6F6F",
"% c #C76114",
"& c #D48C26",
"* c #E1AE67",
"= c #6D8AA0",
/* pixels */
"                                        ",
"                                        ",
"                                        ",
"                                        ",
"                                        ",
"                ..    ..                ",
" o             .  .  .  .             o ",
"o%oo          .    ..    .          oo%o",
"o%&%o          .. .@.. ..          o%&%o",
"o&*&%oo           ....           oo%&*&o",
"o%*&&%%ooooo       ..       ooooo%%&&*%o",
"o&&*%%*&%%%%ooo    ..    ooo%%%%&*%%*&&o",
"o%%&*&&**&%&%%%o  ..@.  o%%%&%&**&&*&%%o",
" oo%&%%&****&&%%%..@...%%%&&****&%%&%oo ",
"   o%&%%&%&&&*%&%..@...%&%*&&&%&%%&%o   ",
"    ooo%%%%%%%*%o .... o%*%%%%%%%ooo    ",
"      %%%&*%&*%%o  ..  o%%*&%*&%%%      ",
"      o%&**&%%oo   ..   oo%%&**&%o      ",
"     o%&*%%%%o   ......   o%%%%*&%o     ",
"     o%%%&&%o ...  ..  ... o%&&%%%o     ",
"      oo%%%o .    ....    . o%%%oo      ",
"        ooo .     .XX.     . ooo        ",
"           .     OXX$XO     .           ",
"           .  ....O+=O....  .           ",
"          .  .  ..X#XX..  .  .          ",
"          .  .  ...#X...  .  .          ",
"         .   .   OXX$XO   .   .         ",
"         .  .    .OO+O.    .  .         ",
"         . .     ..X$..     . .         ",
"         . .     ......     . .         ",
"         . .      ....      . .         ",
"         . .       ..       . .         ",
"         . .       ..       . .         ",
"           .       ..       .           ",
"           .                .           ",
"           .                .           ",
"           .                .           ",
"                                        ",
"                                        ",
"                                        "
};
