/* XPM */
static char *a2b077e29d5a4d05e65c38527ed5699aHhgIa3wodXKPG6QM[] = {
/* columns rows colors chars-per-pixel */
"20 40 2 1 ",
"  c #E68B40",
". c #FFE9C8",
/* pixels */
"                    ",
"                    ",
"                    ",
"....................",
"....................",
"....................",
".....          .....",
"....            ....",
"... .          . ...",
"..   ..........   ..",
"..   ..........   ..",
"..   ..........   ..",
"..   ..........   ..",
"..   ..........   ..",
"..   ..........   ..",
"..   ..........   ..",
"..   ..........   ..",
"..   ..........   ..",
"..   ..........   ..",
"... ............ ...",
"....................",
"... ............ ...",
"..   ..........   ..",
"..   ..........   ..",
"..   ..........   ..",
"..   ..........   ..",
"..   ..........   ..",
"..   ..........   ..",
"..   ..........   ..",
"..   ..........   ..",
"..   ..........   ..",
"..   ..........   ..",
"... .          . ...",
"....            ....",
".....          .....",
"....................",
"....................",
"                    ",
"                    ",
"                    "
};
