/* XPM */
static char *_06bb14e0e694f0ce790705ef5ecd7896VKq1POLm2XaOBFn[] = {
/* columns rows colors chars-per-pixel */
"20 40 2 1 ",
"  c #E68B40",
". c #FFE9C8",
/* pixels */
"                    ",
"                    ",
"                    ",
"....................",
"....................",
"....................",
".....          .....",
"....            ....",
".....          . ...",
"...............   ..",
"...............   ..",
"...............   ..",
"...............   ..",
"...............   ..",
"...............   ..",
"...............   ..",
"...............   ..",
"...............   ..",
"...............   ..",
".....          . ...",
"....            ....",
"... .          .....",
"..   ...............",
"..   ...............",
"..   ...............",
"..   ...............",
"..   ...............",
"..   ...............",
"..   ...............",
"..   ...............",
"..   ...............",
"..   ...............",
"... .          .....",
"....            ....",
".....          .....",
"....................",
"....................",
"                    ",
"                    ",
"                    "
};
