/* XPM */
static char *ce99d90765f444d5ab7bad66b582d8acEwk45USqqDOsISoB[] = {
/* columns rows colors chars-per-pixel */
"20 40 2 1 ",
"  c #E68B40",
". c #FFE9C8",
/* pixels */
"                    ",
"                    ",
"                    ",
"....................",
"....................",
"....................",
".....          .....",
"....            ....",
"... .          .....",
"..   ...............",
"..   ...............",
"..   ...............",
"..   ...............",
"..   ...............",
"..   ...............",
"..   ...............",
"..   ...............",
"..   ...............",
"..   ...............",
"... .          .....",
"....            ....",
".....          . ...",
"...............   ..",
"...............   ..",
"...............   ..",
"...............   ..",
"...............   ..",
"...............   ..",
"...............   ..",
"...............   ..",
"...............   ..",
"...............   ..",
".....          . ...",
"....            ....",
".....          .....",
"....................",
"....................",
"                    ",
"                    ",
"                    "
};
