/* XPM */
static char *_42132f28e504b429bcc18a4e0b6735amOmR7Ksn0PC6Ie2A[] = {
/* columns rows colors chars-per-pixel */
"20 40 2 1 ",
"  c #E68B40",
". c #FFE9C8",
/* pixels */
"                    ",
"                    ",
"                    ",
"....................",
"....................",
"....................",
".....          .....",
"....            ....",
".....          . ...",
"...............   ..",
"...............   ..",
"...............   ..",
"...............   ..",
"...............   ..",
"...............   ..",
"...............   ..",
"...............   ..",
"...............   ..",
"...............   ..",
"................ ...",
"....................",
"................ ...",
"...............   ..",
"...............   ..",
"...............   ..",
"...............   ..",
"...............   ..",
"...............   ..",
"...............   ..",
"...............   ..",
"...............   ..",
"...............   ..",
"................ ...",
"....................",
"....................",
"....................",
"....................",
"                    ",
"                    ",
"                    "
};
