/* XPM */
static char *d0f54a27d27a48279d7917b2e93fbace4VIP3p4ZqILZLH1m[] = {
/* columns rows colors chars-per-pixel */
"40 40 13 1 ",
"  c None",
". c black",
"X c gray19",
"o c #733F19",
"O c #004173",
"+ c #2F5878",
"@ c gray30",
"# c #656565",
"$ c #6F6F6F",
"% c #C76114",
"& c #D48C26",
"* c #E1AE67",
"= c #6D8AA0",
/* pixels */
"                                        ",
"                                        ",
"                                        ",
"   oo                              oo   ",
"  o%%o                            o%%o  ",
" o%&&%o         ..    ..         o%&&%o ",
" o%%*&%o       .  .  .  .       o%&*%%o ",
" o%&*&&%o     .    ..    .     o%&&*&%o ",
" o%&&*%&%oo    .. .@.. ..    oo%&%*&&%o ",
"  o%&*&*&%%oo     ....     oo%%&*&*&%o  ",
"   o%&%&**&%%oo    ..    oo%%&**&%&%o   ",
"    o%&%&**%&%%o   ..   o%%&%**&%&%o    ",
"     o%%%&%**&&%o ..@. o%&&**%&%%%o     ",
"       oo%&&&**%%..@...%%**&&&%oo       ",
"      o%%&%%%%%&%..@...%&%%%%%&%%o      ",
"     o%%&**%&**%o .... o%**&%**&%%o     ",
"    o%&&*%&&%%%%o  ..  o%%%%&&%*&&%o    ",
"     o%%&&%%oooo   ..   oooo%%&&%%o     ",
"      o%%%oo     ......     oo%%%o      ",
"       ooo    ...  ..  ...    ooo       ",
"             .    ....    .             ",
"            .     .XX.     .            ",
"           .     OXX$XO     .           ",
"           .  ....O+=O....  .           ",
"          .  .  ..X#XX..  .  .          ",
"          .  .  ...#X...  .  .          ",
"         .   .   OXX$XO   .   .         ",
"         .  .    .OO+O.    .  .         ",
"         . .     ..X$..     . .         ",
"         . .     ......     . .         ",
"         . .      ....      . .         ",
"         . .       ..       . .         ",
"         . .       ..       . .         ",
"           .       ..       .           ",
"           .                .           ",
"           .                .           ",
"           .                .           ",
"                                        ",
"                                        ",
"                                        "
};
