/* XPM */
static char *a5bedbe7dd094d4e92f407e4f6f4f74dvVlC96sYxOFdDV6j[] = {
/* columns rows colors chars-per-pixel */
"40 40 13 1 ",
"  c None",
". c black",
"X c gray19",
"o c #733F19",
"O c #004173",
"+ c #2F5878",
"@ c gray30",
"# c #656565",
"$ c #6F6F6F",
"% c #C76114",
"& c #D48C26",
"* c #E1AE67",
"= c #6D8AA0",
/* pixels */
"      oo                        oo      ",
"    oo%%o                      o%%oo    ",
"   o%%&&%                      %&&%%o   ",
"   o%%*&%                      %&*%%o   ",
"   o%&*&&o                    o&&*&%o   ",
"    o&&*%%o     ..    ..     o%%*&&o    ",
"    o&&*%&%o   .  .  .  .   o%&%*&&o    ",
"    o%&%*&%%  .    ..    .  %%&*%&%o    ",
"     o%&&**&oo .. .@.. .. oo&**&&%o     ",
"      o%%&**%%oo  ....  oo%%**&%%o      ",
"        %%&%%&%%   ..   %%&%%&%%        ",
"      o%o%&&*&&%o  ..  o%&&*&&%o%o      ",
"     o%%%&%&&**%o ..@. o%**&&%&%%%o     ",
"    o%&%&**%%%%%%..@...%%%%%%**&%&%o    ",
"    o%%**%&%&**&%..@...%&**&%&%**%%o    ",
"     o%&&%%%%%%%o .... o%%%%%%%&&%o     ",
"      o%%ooooooo   ..   ooooooo%%o      ",
"       oo          ..          oo       ",
"                 ......                 ",
"              ...  ..  ...              ",
"             .    ....    .             ",
"            .     .XX.     .            ",
"           .     OXX$XO     .           ",
"           .  ....O+=O....  .           ",
"          .  .  ..X#XX..  .  .          ",
"          .  .  ...#X...  .  .          ",
"         .   .   OXX$XO   .   .         ",
"         .  .    .OO+O.    .  .         ",
"         . .     ..X$..     . .         ",
"         . .     ......     . .         ",
"         . .      ....      . .         ",
"         . .       ..       . .         ",
"         . .       ..       . .         ",
"           .       ..       .           ",
"           .                .           ",
"           .                .           ",
"           .                .           ",
"                                        ",
"                                        ",
"                                        "
};
