/* XPM */
static char *eac35bef1d86438ddd83e989ca962d6cjl3Hl0DzO9wnwbGh[] = {
/* columns rows colors chars-per-pixel */
"40 40 8 1 ",
"  c None",
". c black",
"X c gray19",
"o c #61372E",
"O c gray33",
"+ c #F2AE61",
"@ c gray63",
"# c #FFDEB8",
/* pixels */
"                                        ",
"                                        ",
"                                        ",
"                                        ",
"                                        ",
"                                        ",
"   ..#X##                      ##X#..   ",
"    .#XX#X++                ++X#XX#.    ",
"        XXX+                +XXX        ",
"         XX+++   X    X   +++XX         ",
"           +++XX +X  X+  X+++           ",
"             XXX  +  +  XXX             ",
"              XX  ++++  XX              ",
"      XX++++  XX++oXXo++XX  ++++XX      ",
"  .#X##X++++X   +oX@@Xo+   X++++X##X#.  ",
"  .#XX#    +XXX+oX@XX@Xo+XXX+    #XX#.  ",
"             XX+oXXXXXXo+XX             ",
"               +ooXooXoo+               ",
"        +++++XX++oooooo++XX+++++        ",
"     XX++++++XX+++oooo+++XX++++++XX     ",
"     XX++++++XXX++oooo++XXX++++++XX     ",
" .#X##X++     XXX++++++XXX     ++X##X#. ",
" .#XX#        XXX++++++XXX        #XX#. ",
"             XXX++XXXX++XXX             ",
"            +XX +XXXXXX+ XX+            ",
"           +++  XXXXXXXX  +++           ",
"          +++  XXOOOOOOXX  +++          ",
"         +++  XXOOXXXXOOXX  +++         ",
"         XX+  XXXXXXXXXXXX  +XX         ",
"         XX   XXXXXXXXXXXX   XX         ",
"         ##   XXXXXXXXXXXX   ##         ",
"         ##   XXXXXXXXXXXX   ##         ",
"        X#X    XXXXXXXXXX    X#X        ",
"        X#X    XXXXXXXXXX    X#X        ",
"        XX      XXXXXXXX      XX        ",
"        XX       XXXXXX       XX        ",
"        XX       XXXXXX       XX        ",
"        X                      X        ",
"                                        ",
"                                        "
};
