/* XPM */
static char *result[] = {
/* columns rows colors chars-per-pixel */
"40 40 8 1 ",
"  c black",
". c gray19",
"X c #61372E",
"o c gray33",
"O c #F2AE61",
"+ c gray63",
"@ c #FFDEB8",
"# c None",
/* pixels */
"########################################",
"#####################  #################",
"##############  #####@@#################",
"###### #######@@#####..#################",
"######  ######..#####@.#################",
"######@@######@.###..@@#################",
"######..#####.@@###...##################",
"######@.#####..####OOO##################",
"######@@.####OO###OOOO##########......##",
"#######...###OO###OOO######O..@@@@...###",
"#######O..###OO###OOO#####OO..@@..######",
"#######OOOO##OOO##OOO####OOOO###########",
"#########OO###..##OOO###OOO#############",
"#########OO.###..#...##..O##############",
"##########....#..#.......##.....########",
"###########...#OOOOO....##........######",
"#############OOXXXOOO..OO..o.......#####",
"#########.O##OX..XXOOOOO..oo.........###",
"##########.OOX.+..XXXOO...o..........###",
"############O.+..XXXXOO...o..........###",
"############O.+..XXXXOO...o..........###",
"##########.OOX.+..XXXOO...o..........###",
"#########.O##OX..XXOOOOO..oo.........###",
"#############OOXXXOOO..OO..o.......#####",
"##########....#OOOOO....##........######",
"##########....#..#.......##.....########",
"#########OO.###..#...##..O##############",
"#########OO###..##OOO###OOO#############",
"#######OOOO##OOO##OOO####OOOO###########",
"#######O..###OO###OOO#####OO..@@..######",
"#######...###OO###OOO######O..@@@@...###",
"######@@.####OO###OOOO##########......##",
"######@.#####..####OOO##################",
"######..#####.@@###...##################",
"######@@######@.###..@@#################",
"######  ######..#####@.#################",
"###### #######@@#####..#################",
"##############  #####@@#################",
"#####################  #################",
"########################################"
};
