/* XPM */
static char *result[] = {
/* columns rows colors chars-per-pixel */
"40 40 8 1 ",
"  c black",
". c gray19",
"X c #61372E",
"o c gray33",
"O c #F2AE61",
"+ c gray63",
"@ c #FFDEB8",
"# c None",
/* pixels */
"########################################",
"########################################",
"######################### ##############",
"###########  ############@ #####..######",
"###########@@########### @@###...#######",
"###########..###########..###....#######",
"##..#######.@########..@@####@@#########",
"##.@.######@@.#######...@##@@..#########",
"###..@@#####..O####OOOO.#..@@###########",
"####@@...####OO####OOOO##O..############",
"#####....O###OO###OOOOO##OOO############",
"######OOOOO##OOO##OOO####OOO############",
"#########OO###..##OOO###OOO#############",
"#########OO.###..#...##..O##############",
"##########....#..#.......##.....########",
"###########...#OOOOO....##........######",
"#############OOXXXOOO..OO..o.......#####",
"#########.O##OX..XXOOOOO..oo.........###",
"##########.OOX.+..XXXOO...o..........###",
"############O.+..XXXXOO...o..........###",
"############O.+..XXXXOO...o..........###",
"##########.OOX.+..XXXOO...o..........###",
"#########.O##OX..XXOOOOO..oo.........###",
"#############OOXXXOOO..OO..o.......#####",
"##########....#OOOOO....##........######",
"##########....#..#.......##.....########",
"#########OO.###..#...##..O##############",
"#########OO###..##OOO###OOO#############",
"######OOOOO##OOO##OOO####OOO############",
"#####....O###OO###OOOOO##OOO############",
"####@@...####OO####OOOO##O..############",
"###..@@#####..O####OOOO.#..@@###########",
"##.@.######@@.#######...@##@@..#########",
"##..#######.@########..@@####@@#########",
"###########..###########..###....#######",
"###########@@########### @@###...#######",
"###########  ############@ #####..######",
"######################### ##############",
"########################################",
"########################################"
};
