/* XPM */
static char *_874d511d9c94473b0685c1ecadb889fJbjEREazKywh7wRW[] = {
/* columns rows colors chars-per-pixel */
"40 40 8 1 ",
"  c None",
". c black",
"X c gray19",
"o c #61372E",
"O c gray33",
"+ c #F2AE61",
"@ c gray63",
"# c #FFDEB8",
/* pixels */
"                                        ",
"                                        ",
"      XX                        XX      ",
"      X#X                      X#X      ",
"       XX#                    #XX       ",
"        ##X                  X##        ",
"        +XX+                +XX         ",
"        +XX+                +XX         ",
"        +XX+                +XX         ",
"          ++++   X    X   ++++          ",
"           +++XX +X  X+  X+++           ",
"             XXX  +  +  XXX             ",
"              XX  ++++  XX              ",
"      XX++++  XX++oXXo++XX  ++++XX      ",
"  .#X##X++++X   +oX@@Xo+   X++++X##X#.  ",
"  .#XX#    +XXX+oX@XX@Xo+XXX+    #XX#.  ",
"             XX+oXXXXXXo+XX             ",
"               +ooXooXoo+               ",
"          +++XX++oooooo++XX+++          ",
"        +++++XX+++oooo+++XX+++++        ",
"        +++++XX+++oooo++XXX+++++        ",
"      XX+++   XX+++++++XXX   +++XX      ",
"      XX+++   XX+++++++XXX   +++XX      ",
"      #XX    XXX+XXXXX++XXX    XX#      ",
"    .X##    +XX +XXXXXX+ XX+    ##X.    ",
"  .##X     +++  XXXXXXXX  +++     X##.  ",
"   .#     +++  XXOOOOOOXX  +++     #.   ",
"         +++  XXOOXXXXOOXX  +++         ",
"         XX+  XXXXXXXXXXXX  +XX         ",
"         XX   XXXXXXXXXXXX   XX         ",
"         ##   XXXXXXXXXXXX   ##         ",
"         ##   XXXXXXXXXXXX   ##         ",
"        X#X    XXXXXXXXXX    X#X        ",
"        X#X    XXXXXXXXXX    X#X        ",
"        XX      XXXXXXXX      XX        ",
"        XX       XXXXXX       XX        ",
"        XX       XXXXXX       XX        ",
"        X                      X        ",
"                                        ",
"                                        "
};
