/* XPM */
static char *d5dedb19f9ef41c281518de52c84debaY8N653MVCJ5092IR[] = {
/* columns rows colors chars-per-pixel */
"40 40 8 1 ",
"  c None",
". c black",
"X c gray19",
"o c #61372E",
"O c gray33",
"+ c #F2AE61",
"@ c gray63",
"# c #FFDEB8",
/* pixels */
"                                        ",
"                                        ",
"                                        ",
"                                        ",
"                                        ",
"                                        ",
"   ..#X##                      ##X#..   ",
"    .#XX#X++                ++X#XX#.    ",
"        XXX+                +XXX        ",
"         XX+++   X    X   +++XX         ",
"           +++XX +X  X+  X+++           ",
"   .#XX#     XXX  +  +  XXX     #XX#.   ",
"   .#X##X     XX  ++++  XX     X##X#.   ",
"       XX+++  XX++oXXo++XX  +++XX       ",
"        ++++X   +oX@@Xo+   X++++        ",
"           +XXX+oX@XX@Xo+XXX+           ",
"             XX+oXXXXXXo+XX             ",
"               +ooXooXoo+               ",
"        +++++XX++oooooo++XX+++++        ",
"     XX++++++XX+++oooo+++XX++++++XX     ",
"     XX++++++XXX++oooo++XXX++++++XX     ",
" .#X##X++     XXX++++++XXX     ++X##X#. ",
" .#XX#        XXX++++++XXX        #XX#. ",
"             XXX++XXXX++XXX             ",
"            +XX +XXXXXX+ XX+            ",
"        X+++++  XXXXXXXX  +++++X        ",
"        XX+++  XXOOOOOOXX  +++XX        ",
"       ##X++  XXOOXXXXOOXX  ++X##       ",
"       ##     XXXXXXXXXXXX     ##       ",
"     X#X      XXXXXXXXXXXX      X#X     ",
"    XX#X      XXXXXXXXXXXX      X#XX    ",
"    XX        XXXXXXXXXXXX        XX    ",
"   XXX         XXXXXXXXXX         XXX   ",
"   X           XXXXXXXXXX           X   ",
"                XXXXXXXX                ",
"                 XXXXXX                 ",
"                 XXXXXX                 ",
"                                        ",
"                                        ",
"                                        "
};
