/* XPM */
static char *_5f97b23143942faa49ecf5b48192aacADZDSMw17YHUn9Rc[] = {
/* columns rows colors chars-per-pixel */
"40 40 8 1 ",
"  c None",
". c black",
"X c gray19",
"o c #61372E",
"O c gray33",
"+ c #F2AE61",
"@ c gray63",
"# c #FFDEB8",
/* pixels */
"                                        ",
"                                        ",
"      XX                        XX      ",
"      X#X                      X#X      ",
"       XX#                    #XX       ",
"        ##X                  X##        ",
"        #XX+                +XX#        ",
"         XX+                +XX         ",
"         XX+                +XX         ",
"          ++++   X    X   ++++          ",
"           +++XX +X  X+  X+++           ",
"   .#XX#     XXX  +  +  XXX     #XX#.   ",
"   .#X##X     XX  ++++  XX     X##X#.   ",
"       XX+++  XX++oXXo++XX  +++XX       ",
"        ++++X   +oX@@Xo+   X++++        ",
"           +XXX+oX@XX@Xo+XXX+           ",
"             XX+oXXXXXXo+XX             ",
"               +ooXooXoo+               ",
"          +++XX++oooooo++XX+++          ",
"        +++++XX+++oooo+++XX+++++        ",
"        +++++XXX++oooo++XXX+++++        ",
"      XX+++   XXX++++++XXX   +++XX      ",
"      XX+++   XXX++++++XXX   +++XX      ",
"      #XX    XXX++XXXX++XXX    XX#      ",
"    .X##    +XX +XXXXXX+ XX+    ##X.    ",
"  .##X  X+++++  XXXXXXXX  +++++X  X##.  ",
"   .#   XX+++  XXOOOOOOXX  +++XX   #.   ",
"       ##X++  XXOOXXXXOOXX  ++X##       ",
"       ##     XXXXXXXXXXXX     ##       ",
"     X#X      XXXXXXXXXXXX      X#X     ",
"    XX#X      XXXXXXXXXXXX      X#XX    ",
"    XX        XXXXXXXXXXXX        XX    ",
"   XXX         XXXXXXXXXX         XXX   ",
"   X           XXXXXXXXXX           X   ",
"                XXXXXXXX                ",
"                 XXXXXX                 ",
"                 XXXXXX                 ",
"                                        ",
"                                        ",
"                                        "
};
