/* XPM */
static char *result[] = {
/* columns rows colors chars-per-pixel */
"20 40 2 1 ",
"  c #E68B40",
". c #FFE9C8",
/* pixels */
"                    ",
"                    ",
"                    ",
"....................",
"....................",
"....................",
".    ..........    .",
".    ..........    .",
".    ..........    .",
".    ..........    .",
".       ....       .",
".       ....       .",
".       ....       .",
".       ....       .",
".    ...    ...    .",
".    ...    ...    .",
".    ...    ...    .",
".    ...    ...    .",
".    ..........    .",
".    ..........    .",
".    ..........    .",
".    ..........    .",
".    ..........    .",
".    ..........    .",
".    ..........    .",
".    ..........    .",
".    ..........    .",
".    ..........    .",
".    ..........    .",
".    ..........    .",
".    ..........    .",
".    ..........    .",
".    ..........    .",
".    ..........    .",
"....................",
"....................",
"....................",
"                    ",
"                    ",
"                    "
};
