/* XPM */
static char *_b33caa126264b38ed3f46bdacda46bdQKitcFXDPJ2hIa5W[] = {
/* columns rows colors chars-per-pixel */
"40 40 5 1 ",
"  c None",
". c #184A70",
"X c #4B94B3",
"o c #4BB3A5",
"O c #2BF0DC",
/* pixels */
"                                        ",
"                                        ",
"                                        ",
"                                        ",
"                                        ",
"                                        ",
"                                        ",
"                 .    .                 ",
"                  .  .                  ",
"      .           ....           .      ",
"       ..        .XOoX.        ..       ",
"         .       .XooX.       .         ",
"         .      ........      .         ",
"         .     .XXXXXXXX.     .         ",
"         ..   .XooOOOOooX.   ..         ",
"          ... .XoooOOoooX. ...          ",
"            ...XXXXooXXXX...            ",
"            .X.....XX.....X.            ",
"            .XXXXX....XXXXX.            ",
"            .XooXXXXXXXXooX.            ",
"         ....XooooXXXXooooX....         ",
"        .   .XooOOoXXoOOooX.   .        ",
"       .    .XooOOoXXoOOooX.    .       ",
"     ..     .XooOOoXXoOOooX.     ..     ",
"            .XooOOoXXoOOooX.            ",
"         ....XooOOoXXoOOooX....         ",
"        .   .XooOOoXXoOOooX.   .        ",
"        .   .XooOOoXXoOOooX.   .        ",
"      ..    .XXXoOoXXoOoXXX.    ..      ",
"     .       ..XXXoXXoXXX..       .     ",
"               .XXXXXXXX.               ",
"                ........                ",
"                                        ",
"                                        ",
"                                        ",
"                                        ",
"                                        ",
"                                        ",
"                                        ",
"                                        "
};
