/* XPM */
static char *d7b496c2d27a4e8cd2e5e279acbe22f1W70EIN7PUgksZm8e[] = {
/* columns rows colors chars-per-pixel */
"40 40 17 1 ",
"  c None",
". c #570D0D",
"X c #7D1414",
"o c #184A70",
"O c #0F517D",
"+ c #224A65",
"@ c #41596C",
"# c #800F0F",
"$ c #8F1717",
"% c #AC1212",
"& c #B81616",
"* c #F76425",
"= c IndianRed",
"- c #316B91",
"; c #5D809B",
": c #6F97B2",
"> c #8EA6B9",
/* pixels */
"                                        ",
"                                        ",
"                                        ",
"                                        ",
"                                        ",
"                                        ",
"                                        ",
"              o         o               ",
"               o       o                ",
"        oo      oooo@;o      oo         ",
"          o    ooooo;>;o    o           ",
"          o    oooooo;oo    o           ",
"           o  &&&&&o&&&&&  o            ",
"            o$$&&&OOO&&=&%o             ",
"            X$X$&oOOOO&&&&%             ",
"           oXX$$$oOOOO&*&&&O            ",
"           ooX$$$%OOO&&*&&-O            ",
"           oo$$$$$%o&&&*&&-O            ",
"           o$$$oo$%o&&-:&&&O            ",
"         oo.X$oooo%o&--:-&&%oo          ",
"        o  .X$oooo%o&--:-&&%  o         ",
"       o   .X$$oo#%o&&-:&&%%   o        ",
"     oo    .X$$$$&&o&&&*&&%%    oo      ",
"           ..XXX$&&o&&&&&&%%            ",
"           o..oo#&&o&&&-+%%o            ",
"          o  oooo#&o&&--++  o           ",
"         o    ooo#&o%%--+    o          ",
"         o     o##&o%%%+     o          ",
"         o                   o          ",
"          o                 o           ",
"           o               o            ",
"           o               o            ",
"                                        ",
"                                        ",
"                                        ",
"                                        ",
"                                        ",
"                                        ",
"                                        ",
"                                        "
};
