/* XPM */
static char *_069dadd340f43a7a2ad517f9a646972P00qgvwdWD09UcXg[] = {
/* columns rows colors chars-per-pixel */
"40 40 9 1 ",
"  c None",
". c #641010",
"X c #184A70",
"o c #8F1717",
"O c #C91414",
"+ c #C75214",
"@ c #F9A825",
"# c #276896",
"$ c #6896B6",
/* pixels */
"                                        ",
"               oo     oo                ",
"              oo       oo               ",
"              o.       .o               ",
"            X o.       .o X             ",
"            X oo       oo X             ",
"            X  oo$####oo  X             ",
"           X   ######$##   X            ",
"          X    #$$######    X           ",
"          XX   #XXXXXXX#   XX           ",
"          XX   XX#####XX   XX           ",
"          XX    XXXXXXX    XX           ",
"           XXXX####X####XXXX            ",
"            XX#####X#$###XX             ",
"               ####X#$##                ",
"                ###X###                 ",
"                 XXXXX                  ",
"             XXXXXXXXXXXXX              ",
"          XXXXoooooXoooooXXXX           ",
"         XXXXooooooXooooooXXXX          ",
"        X   XooOoooXoo@oooX   X         ",
"       X    Xoo@+OoXo+@oooX    X        ",
"       X    Xoo++OoXoO+oooX    X        ",
"      X     XooO++oXo+OoooX     X       ",
"      X     XooO+@oXo@+oooX     X       ",
"      X     XooOo@oXo@+oooX     X       ",
"     X      X.ooo+oXooOoo.X      X      ",
"    X       X.oooOoXooooo.X       X     ",
"            X.oooooXooooo.X             ",
"           XX..ooo.X.ooo..XX            ",
"          X  X..o..X..o..X  X           ",
"         X    X....X....X    X          ",
"         XX    X...X...X    XX          ",
"         XX     XXX XXX     XX          ",
"         XX                 XX          ",
"          X                 X           ",
"         X                   X          ",
"        X                     X         ",
"       X                       X        ",
"                                        "
};
