/* XPM */
static char *_3a03aeb6db04d7fbe658d2c72506578ZDKKlEXoUIKlKFIs[] = {
/* columns rows colors chars-per-pixel */
"40 40 6 1 ",
"  c None",
". c #2E7D32",
"X c #318235",
"o c #349137",
"O c #37943A",
"+ c #89AD5E",
/* pixels */
"                                        ",
"                                        ",
"                                        ",
"              +XX.X...                  ",
"             ++XoO.O...                 ",
"            ++OoOOOO...                 ",
"            +OOOOOOOO..X                ",
"            +O+OO..OO..X                ",
"            +O+OOO.OO...                ",
"            +OOOOOOOO...                ",
"     +++O   +O+OOOO.O...                ",
"     ++OO   +OOOOOO.O...                ",
"    ++OOO   +OOOOOO.O.O.                ",
"    ++O+OO  +OOOOOOOO.O.                ",
"    ++O++O  +OOOOOO.O.O.                ",
"    +OOOOO  +OOOOOOOO...                ",
"    +OOOOO  +OOOOOO.O...                ",
"    OOOOOOOOOOOOOOO.O...                ",
"    OOOOOO+OOOOOOOO.O...                ",
"    OOOOOO+OOOOOOOO.O...                ",
"     OOOOOOOOOOOOOOOO...                ",
"      OOOOOO+OOOOOOOO...     ..         ",
"            +OOOOOOOO...    ..X.        ",
"            +OOOOOOO....    .X..        ",
"            ++OOOOOO.O..    ....        ",
"            ++OOOOOO.O..   .....        ",
"            ++OOOOOO.O..........        ",
"            ++OOOOOO............        ",
"            +OOOOOOO.....OO....         ",
"            +OOOOO.OO....O.....         ",
"            +OOOOO.OO.........          ",
"            +OOOOO.O........            ",
"            +OOOOO.O....                ",
"            +OOOO..O....                ",
"            +OOOOOO.....                ",
"             OOOO.O....                 ",
"                                        ",
"                                        ",
"                                        ",
"                                        "
};
