/* XPM */
static char *c85b29e7bd494df5e05dbef9a9220f2cjlQ5ABew5OOl3IS7[] = {
/* columns rows colors chars-per-pixel */
"40 40 5 1 ",
"  c None",
". c #38291A",
"X c #7D5C3C",
"o c #A67D57",
"O c #FAD187",
/* pixels */
"                                        ",
"                 OOOOOOO                ",
"                 OOOOOOO                ",
"              OOOOOOOOOOOOO             ",
"             OOOOOOOOOOOOOOOOO          ",
"           OOOOOooooooooooOOOO          ",
"          OOOOOooX......XXoOOOO         ",
"          OOOOOooX......XXoOOOO         ",
"          OOOOoXXX.......XXoooOO        ",
"         OOooooX..........XXooOOO       ",
"         OOooXX............XoooOOO      ",
"         OOooXX............XoooOOO      ",
"         ooooXX............XXXooOO      ",
"        OooooXX............XXXooOO      ",
"       OOooooXX............XXXooOOO     ",
"       OOooooXX............XXXooOOO     ",
"       OOooooXXX...........XXXoooOO     ",
"     OOOoooooXXX..........XXXXoooOOO    ",
"     OOOooooooXXX........XXXoooooOOOOO  ",
"     OOooooooooXXX......XXXooooooOOOOO  ",
"     OOooooooooXXX......XXXooooooOOOOO  ",
"   OOOOooooooooXXXXXXXXXXXXooooooOOOOO  ",
"   OOOOoooooooooXXXXXXXXXXoooooooOOO    ",
"   OOOOOoooooooooXXXXXXXXooooooOOOOO    ",
"   OOOOOoooooooooXXXXXXXXooooooOOOOO    ",
"   OOOOOOoooooooooXXXXXXooooooOOOOO     ",
"   OOOOOOOooooooooooooooooooooOOOOO     ",
"   OOOOOOOOooooooooooooooooOOOOOOOO     ",
"   OOOOOOOOooooooooooooooooOOOOOOOO     ",
"      OOOOOoooooooooooooooOOOOOOOOO     ",
"        OOOOOoooooooooooOOOOOOOOOO      ",
"        OOOOOOOOOoooooOOOOOOOOOO        ",
"          OOOOOOOOOOOOOOOOOOOOO         ",
"          OOOOOOOOOOOOOOOOOOOOO         ",
"             OOOOOOOOOOOOOOO            ",
"               OOOOOOOOOO               ",
"                                        ",
"                                        ",
"                                        ",
"                                        "
};
