/* XPM */
static char *_7cf739157de4f8697cedc2f19c94a751CbJ58QKLSxpht1V[] = {
/* columns rows colors chars-per-pixel */
"40 40 12 1 ",
"  c #E9BD9A",
". c #F3C399",
"X c #ECC4AA",
"o c #FCD0A9",
"O c #F5DAAE",
"+ c #FCDCA9",
"@ c #F6D8B6",
"# c #F5DCB6",
"$ c #F6DFB6",
"% c #F9E0B8",
"& c #F8E5BB",
"* c #FFE9C8",
/* pixels */
"******&&@@@@******..####******oo##******",
"******&&@@@@******..$$##******oo##******",
"****##@@@@@@**....**********######****&&",
"****##@@@@@@**....**********######****&&",
"&&%%@@@@****....##****$$$$######****&&&&",
"&&%#@@@@****....##****$$$$######****&&&&",
"$$%%@@**....####++**%$$$######****++##&&",
"$$%#@@**....####++**%$$$######****++##&&",
"$###############++****$$####**oooo++####",
"$###############++****$$####**oooo++####",
"OOOOOO++++****##++++****##**oooo++##oo##",
"OOOOOO++++****##++++****##**oooo++##oo##",
"OO++++****XX####++++****##**++++####++OO",
"OO++++****XX####++++****##**++++####++OO",
"**++**XXXX#%####++oo**@@##**++##oo++++**",
"**++**XXXX#%####++oo**@@##**++##oo++++**",
"******XX%%##++++oooo**@@########oo++****",
"******XX%###++++oooo**@@########oo++****",
"**%%%%%%%%++++..****@@@@####oooo++******",
"**%%%%%%%%++++..****@@@@####oooo++******",
"  %%%%##oo....******@@####oooo++********",
"  %%%%##oo....******@@####oooo++********",
"######oooo..******OO##oooooo++****&&****",
"######oooo..******OO##oooooo++****&&****",
"####oooo..****&&##oooooo++++****&&@@**##",
"####oooo..****&&##oooooo++++****&&@@**##",
"##oooo..****OOOO####@@@@######@@@@**##%%",
"##oooo..****OOOO####@@@@######@@@@**##%%",
"##..******OO######**@@@@**######****##%%",
"##..******OO#@####**@@@@**######****##%%",
"##****OOOO****@@@@    **########**####%%",
"##****OOOO****@@@@    **########**####%%",
"##**##******@@@@    **++########**%%%%%%",
"##**##******@@@@    **++########**%%%%%%",
"####******@@@@@@  ****++######****####**",
"####******@@@@@@  ****++######****####**",
"**********@@      **++++####****oo##****",
"**********@@      **++++####****oo##****",
"********@@@@  ****oo++####****oooo##****",
"********@@@@  ****oo++####****oooo##****"
};
