/* XPM */
static char *f1d8451a75db497facb861b0d3547f61lHa5ojij4Vw0WMy6[] = {
/* columns rows colors chars-per-pixel */
"60 40 3 1 ",
"  c #2B314E",
". c #3D4670",
"X c #F9E0B8",
/* pixels */
"XXXXXXXXXXXXXXXXXXXXXXXXXXXXXXXXXXXXXXXXXXXXXXXXXXXXXXXXXXXX",
"XXXXXXXXXXXXXXXXXXXXXXXXXXXXXXXXXXXXXXXXXXXXXXXXXXXXXXXXXXXX",
"XXXXXXXXXXXXXXXXXXXXXXXXXXXXXXXXXXXXXXXXXXXXXXXXXXXXXXXXXXXX",
"XXXXXXXXXXXXXXXXXXXXXXXXXXXXXXXXXXXXXXXXXXXXXXXXXXXXXXXXXXXX",
"XX   XX   XXXX   XXX  XXXX           XXXXXXXXXXXXXXXXXXXXXXX",
"X     X    XX     X    XX             XXXXXXXXXXXXXXXXXXXXXX",
"X   ..X  .. X   ..X  .. X   .......... XXXXXXXXXXXXXXXXXXXXX",
"X  ...X  ...X  ...X  ...X  ............XXXXXXXXXXXXXXXXXXXXX",
"X  ...X  ...X  ...X  ...X  ...  ..X ...XXXXXXXXXXXXXXXXXXXXX",
"X  ...X  ...X  ...X  ...X  ..X  ..X  ..XXXXXXXXXXXXXXXXXXXXX",
"X  ...X  ...X  ...X  ...X  ..X  ..X  ..XXXXXXXXXXXXXXXXXXXXX",
"X  ...X  ...X  ...X  ...X  ..X  ..X  ..XXXXXXXXXXXXXXXXXXXXX",
"X  ...X  ...X  ...X  ...X  ..X  ..X  ..XXXXXXXXXXXXXXXXXXXXX",
"X  ...X  ...X  ...X  ...X  ..X  ..X  ..XXXXXXXXXXXXXXXXXXXXX",
"X  ...X  ...X  ...X  ...X  ..X  ..X  ..XXXXXXXXXXXXXXXXXXXXX",
"X  ...X  ...X  ...X  ...X  ..X  ..X  ..XXXXXXXXXXXXXXXXXXXXX",
"X  ...X  ...X  ...X  ...X  ..X  ..X  ..XXXXXXXXXXXXXXXXXXXXX",
"X  ...X  ...X  ...X  ...X  ..X  ..X  ..XXXXXXXXXXXXXXXXXXXXX",
"X  ...X  ...X  ...X  ...X  ..X  ..X  ..XXXXXXXXXXXXXXXXXXXXX",
"X  ...X  ...X  ...X  ...X  ..X  ..X  ..XXXXXXXXXXXXXXXXXXXXX",
"X  ...X  ...X  ...X  ...X  ..X  ..X  ..XXXXXXXXXXXXXXXXXXXXX",
"X  ...   ...XX ...   ...X  ..X  ..X  ..XXXXXXXXXXXXXXXXXXXXX",
"X  ...  ....XX .........X  ..X  ..X  ..XXXXXXXXXXXXXXXXXXXXX",
"X  .........XX .........XX ..XX ..X  ..XXXXXXXXXXXXXXXXXXXXX",
"XX  ........XXX .......XXXX .XXXXXXX .XXXXXXXXXXXXXXXXXXXXXX",
"XXXXXXX  ...XXXXXXXXXXXXXXXXXXXXXXXXXXXXXXXXXXXXXXXXXXXXXXXX",
"XXXXXXX  ...XXXXXXXXXXXXXXXXXXXXXXXXXXXXXXXXXXXXXXXXXXXXXXXX",
"XXXXXXX  ...XXXXXXXXXXXXXXXXXXXXXXXXXXXXXXXXXXXXXXXXXXXXXXXX",
"XX   XX  ...XXXXXXXXXXXXXXXXXXXXXXXXXXXXXXXXXXXXXXXXXXXXXXXX",
"X     X  ...XXXXXXXXXXXXXXXXXXXXXXXXXXXXXXXXXXXXXXXXXXXXXXXX",
"X   ..   ...XXXXXXXXXXXXXXXXXXXXXXXXXXXXXXXXXXXXXXXXXXXXXXXX",
"X  ...  ....XXXXXXXXXXXXXXXXXXXXXXXXXXXXXXXXXXXXXXXXXXXXXXXX",
"X  .........XXXXXXXXXXXXXXXXXXXXXXXXXXXXXXXXXXXXXXXXXXXXXXXX",
"XXX .......XXXXXXXXXXXXXXXXXXXXXXXXXXXXXXXXXXXXXXXXXXXXXXXXX",
"XXXXXXXXXXXXXXXXXXXXXXXXXXXXXXXXXXXXXXXXXXXXXXXXXXXXXXXXXXXX",
"XXXXXXXXXXXXXXXXXXXXXXXXXXXXXXXXXXXXXXXXXXXXXXXXXXXXXXXXXXXX",
"XXXXXXXXXXXXXXXXXXXXXXXXXXXXXXXXXXXXXXXXXXXXXXXXXXXXXXXXXXXX",
"XXXXXXXXXXXXXXXXXXXXXXXXXXXXXXXXXXXXXXXXXXXXXXXXXXXXXXXXXXXX",
"XXXXXXXXXXXXXXXXXXXXXXXXXXXXXXXXXXXXXXXXXXXXXXXXXXXXXXXXXXXX",
"XXXXXXXXXXXXXXXXXXXXXXXXXXXXXXXXXXXXXXXXXXXXXXXXXXXXXXXXXXXX"
};
